<svg width="33" height="44" viewBox="0 0 33 44" fill="none" xmlns="http://www.w3.org/2000/svg">
<path fill-rule="evenodd" clip-rule="evenodd" d="M20.25 6.06915C19.6533 6.06915 19.081 6.30893 18.659 6.73574C18.2371 7.16254 18 7.74142 18 8.34501C18 9.18296 17.3284 9.86225 16.5 9.86225C15.6716 9.86225 15 9.18296 15 8.34501C15 6.93662 15.5531 5.58591 16.5377 4.59003C17.5223 3.59415 18.8576 3.03467 20.25 3.03467C21.6424 3.03467 22.9777 3.59415 23.9623 4.59003C24.9469 5.58591 25.5 6.93662 25.5 8.34501V19.7243C25.5 20.5623 24.8284 21.2416 24 21.2416C23.1716 21.2416 22.5 20.5623 22.5 19.7243V8.34501C22.5 7.74142 22.2629 7.16254 21.841 6.73574C21.419 6.30893 20.8467 6.06915 20.25 6.06915Z" fill="white"/>
<path fill-rule="evenodd" clip-rule="evenodd" d="M12.7498 3.03448C12.153 3.03448 11.5807 3.27426 11.1588 3.70107C10.7368 4.12787 10.4998 4.70675 10.4998 5.31034V11.3793C10.4998 12.2173 9.82818 12.8966 8.99976 12.8966C8.17133 12.8966 7.49976 12.2173 7.49976 11.3793V5.31034C7.49976 3.90195 8.05288 2.55125 9.03745 1.55536C10.022 0.559481 11.3574 0 12.7498 0C14.1421 0 15.4775 0.559481 16.4621 1.55536C17.4466 2.55125 17.9998 3.90195 17.9998 5.31034V18.2069C17.9998 19.0448 17.3282 19.7241 16.4998 19.7241C15.6713 19.7241 14.9998 19.0448 14.9998 18.2069V5.31034C14.9998 4.70675 14.7627 4.12787 14.3407 3.70107C13.9188 3.27426 13.3465 3.03448 12.7498 3.03448Z" fill="white"/>
<path fill-rule="evenodd" clip-rule="evenodd" d="M5.25 9.10345C4.65326 9.10345 4.08097 9.34323 3.65901 9.77004C3.23705 10.1968 3 10.7757 3 11.3793V27.3103C3 30.9319 4.42232 34.4052 6.95406 36.966C9.4858 39.5269 12.9196 40.9655 16.5 40.9655C20.0804 40.9655 23.5142 39.5269 26.0459 36.966C28.5777 34.4052 30 30.9319 30 27.3103V19.7241C30 19.1205 29.7629 18.5417 29.341 18.1149C28.919 17.6881 28.3467 17.4483 27.75 17.4483C27.1533 17.4483 26.581 17.6881 26.159 18.1149C25.7371 18.5417 25.5 19.1205 25.5 19.7241V23.5172C25.5 24.3552 24.8284 25.0345 24 25.0345C22.4087 25.0345 20.8826 25.6739 19.7574 26.812C18.6321 27.9502 18 29.4939 18 31.1035C18 31.9414 17.3284 32.6207 16.5 32.6207C15.6716 32.6207 15 31.9414 15 31.1035C15 28.6891 15.9482 26.3736 17.636 24.6663C18.9661 23.321 20.6695 22.4403 22.5 22.1273V19.7241C22.5 18.3158 23.0531 16.965 24.0377 15.9692C25.0223 14.9733 26.3576 14.4138 27.75 14.4138C29.1424 14.4138 30.4777 14.9733 31.4623 15.9692C32.4469 16.965 33 18.3158 33 19.7241V27.3103C33 31.7367 31.2616 35.9818 28.1673 39.1117C25.0729 42.2416 20.8761 44 16.5 44C12.1239 44 7.92709 42.2416 4.83274 39.1117C1.73839 35.9818 0 31.7367 0 27.3103V11.3793C0 9.97092 0.553123 8.62022 1.53769 7.62433C2.52226 6.62845 3.85761 6.06897 5.25 6.06897C6.64239 6.06897 7.97774 6.62845 8.96231 7.62433C9.94688 8.62022 10.5 9.97092 10.5 11.3793V19.7241C10.5 20.5621 9.82843 21.2414 9 21.2414C8.17157 21.2414 7.5 20.5621 7.5 19.7241V11.3793C7.5 10.7757 7.26295 10.1968 6.84099 9.77004C6.41903 9.34323 5.84674 9.10345 5.25 9.10345Z" fill="white"/>
</svg>
