<svg width="36" height="44" viewBox="0 0 36 44" fill="none" xmlns="http://www.w3.org/2000/svg">
<path fill-rule="evenodd" clip-rule="evenodd" d="M1.6718 0.428255C2.1781 0.135061 2.75051 -0.012488 3.33 0.000827757C3.90827 0.0141154 4.47268 0.187109 4.96526 0.501998C4.96631 0.502667 4.96735 0.503336 4.9684 0.504006L34.2558 19.1121C34.7347 19.4092 35.1316 19.8299 35.408 20.3334C35.6867 20.8411 35.8333 21.4155 35.8333 22C35.8333 22.5845 35.6867 23.1589 35.408 23.6667C35.1316 24.1701 34.7347 24.5908 34.2558 24.8879L4.9684 43.496C4.96719 43.4968 4.96597 43.4976 4.96476 43.4983C4.47229 43.813 3.90807 43.9859 3.33 43.9992C2.75052 44.0125 2.1781 43.8649 1.6718 43.5717C1.1655 43.2786 0.743654 42.8503 0.449779 42.3313C0.155902 41.8122 0.000638691 41.221 0 40.6188V3.38117C0.000638691 2.77896 0.155902 2.18783 0.449779 1.66875C0.743654 1.14967 1.1655 0.721449 1.6718 0.428255ZM33.4145 20.5614L32.5745 21.9886L32.5851 21.982C32.5822 21.9838 32.5797 21.9864 32.578 21.9895C32.5763 21.9927 32.5754 21.9963 32.5754 22C32.5754 22.0037 32.5763 22.0073 32.578 22.0105C32.5798 22.0137 32.5823 22.0163 32.5854 22.0182L33.4145 20.5614ZM32.5564 22L3.25797 3.38492L3.25797 40.6151L3.26332 40.6117L32.5564 22Z" fill="#E1E1E6"/>
</svg>
